<mxfile host="app.diagrams.net" modified="2024-05-19T15:00:14.698Z" agent="Mozilla/5.0 (Windows NT 10.0; Win64; x64; rv:126.0) Gecko/20100101 Firefox/126.0" etag="x8x8W57Cl32JcFrf27m0" version="24.4.4" type="github">
  <diagram name="Page-1" id="9hqa1EYiereK8jZl_oy_">
    <mxGraphModel dx="934" dy="812" grid="1" gridSize="8" guides="1" tooltips="1" connect="1" arrows="1" fold="1" page="1" pageScale="1" pageWidth="827" pageHeight="1169" math="0" shadow="0">
      <root>
        <mxCell id="0" />
        <mxCell id="1" parent="0" />
        <mxCell id="5MErfeMuYOcCwuII5DUp-5" style="edgeStyle=orthogonalEdgeStyle;rounded=0;orthogonalLoop=1;jettySize=auto;html=1;entryX=0.5;entryY=0;entryDx=0;entryDy=0;" edge="1" parent="1" source="5MErfeMuYOcCwuII5DUp-1" target="5MErfeMuYOcCwuII5DUp-2">
          <mxGeometry relative="1" as="geometry" />
        </mxCell>
        <mxCell id="5MErfeMuYOcCwuII5DUp-1" value="&lt;font style=&quot;font-size: 16px;&quot;&gt;&lt;b&gt;Start&lt;/b&gt;&lt;/font&gt;" style="ellipse;whiteSpace=wrap;html=1;" vertex="1" parent="1">
          <mxGeometry x="354" y="30" width="120" height="80" as="geometry" />
        </mxCell>
        <mxCell id="5MErfeMuYOcCwuII5DUp-6" style="edgeStyle=orthogonalEdgeStyle;rounded=0;orthogonalLoop=1;jettySize=auto;html=1;entryX=0.5;entryY=0;entryDx=0;entryDy=0;" edge="1" parent="1" source="5MErfeMuYOcCwuII5DUp-2" target="5MErfeMuYOcCwuII5DUp-4">
          <mxGeometry relative="1" as="geometry" />
        </mxCell>
        <mxCell id="5MErfeMuYOcCwuII5DUp-2" value="Get username" style="shape=parallelogram;perimeter=parallelogramPerimeter;whiteSpace=wrap;html=1;fixedSize=1;" vertex="1" parent="1">
          <mxGeometry x="354" y="147" width="120" height="60" as="geometry" />
        </mxCell>
        <mxCell id="5MErfeMuYOcCwuII5DUp-18" style="edgeStyle=orthogonalEdgeStyle;rounded=0;orthogonalLoop=1;jettySize=auto;html=1;entryX=0;entryY=0.5;entryDx=0;entryDy=0;" edge="1" parent="1" source="5MErfeMuYOcCwuII5DUp-3" target="5MErfeMuYOcCwuII5DUp-17">
          <mxGeometry relative="1" as="geometry">
            <Array as="points">
              <mxPoint x="132" y="760" />
            </Array>
          </mxGeometry>
        </mxCell>
        <mxCell id="5MErfeMuYOcCwuII5DUp-3" value="Display Error&lt;br&gt;Message" style="shape=parallelogram;perimeter=parallelogramPerimeter;whiteSpace=wrap;html=1;fixedSize=1;" vertex="1" parent="1">
          <mxGeometry x="72" y="400" width="120" height="60" as="geometry" />
        </mxCell>
        <mxCell id="5MErfeMuYOcCwuII5DUp-7" style="edgeStyle=orthogonalEdgeStyle;rounded=0;orthogonalLoop=1;jettySize=auto;html=1;exitX=0;exitY=0.5;exitDx=0;exitDy=0;entryX=0.5;entryY=0;entryDx=0;entryDy=0;" edge="1" parent="1" source="5MErfeMuYOcCwuII5DUp-4" target="5MErfeMuYOcCwuII5DUp-3">
          <mxGeometry relative="1" as="geometry" />
        </mxCell>
        <mxCell id="5MErfeMuYOcCwuII5DUp-9" style="edgeStyle=orthogonalEdgeStyle;rounded=0;orthogonalLoop=1;jettySize=auto;html=1;entryX=0.5;entryY=0;entryDx=0;entryDy=0;" edge="1" parent="1" source="5MErfeMuYOcCwuII5DUp-4" target="5MErfeMuYOcCwuII5DUp-8">
          <mxGeometry relative="1" as="geometry" />
        </mxCell>
        <mxCell id="5MErfeMuYOcCwuII5DUp-4" value="&lt;div&gt;Valid Username&lt;/div&gt;&lt;div&gt;&lt;br&gt;&lt;/div&gt;" style="rhombus;whiteSpace=wrap;html=1;" vertex="1" parent="1">
          <mxGeometry x="374" y="256" width="80" height="80" as="geometry" />
        </mxCell>
        <mxCell id="5MErfeMuYOcCwuII5DUp-11" style="edgeStyle=orthogonalEdgeStyle;rounded=0;orthogonalLoop=1;jettySize=auto;html=1;entryX=0.5;entryY=0;entryDx=0;entryDy=0;" edge="1" parent="1" source="5MErfeMuYOcCwuII5DUp-8" target="5MErfeMuYOcCwuII5DUp-10">
          <mxGeometry relative="1" as="geometry" />
        </mxCell>
        <mxCell id="5MErfeMuYOcCwuII5DUp-8" value="Create Image of Random Pixels" style="rounded=0;whiteSpace=wrap;html=1;" vertex="1" parent="1">
          <mxGeometry x="354" y="400" width="120" height="60" as="geometry" />
        </mxCell>
        <mxCell id="5MErfeMuYOcCwuII5DUp-15" style="edgeStyle=orthogonalEdgeStyle;rounded=0;orthogonalLoop=1;jettySize=auto;html=1;entryX=0.5;entryY=0;entryDx=0;entryDy=0;" edge="1" parent="1" source="5MErfeMuYOcCwuII5DUp-10" target="5MErfeMuYOcCwuII5DUp-12">
          <mxGeometry relative="1" as="geometry">
            <Array as="points">
              <mxPoint x="414" y="576" />
              <mxPoint x="324" y="576" />
            </Array>
          </mxGeometry>
        </mxCell>
        <mxCell id="5MErfeMuYOcCwuII5DUp-16" style="edgeStyle=orthogonalEdgeStyle;rounded=0;orthogonalLoop=1;jettySize=auto;html=1;exitX=0.5;exitY=1;exitDx=0;exitDy=0;entryX=0.5;entryY=0;entryDx=0;entryDy=0;" edge="1" parent="1" source="5MErfeMuYOcCwuII5DUp-10" target="5MErfeMuYOcCwuII5DUp-14">
          <mxGeometry relative="1" as="geometry">
            <Array as="points">
              <mxPoint x="414" y="576" />
              <mxPoint x="500" y="576" />
            </Array>
          </mxGeometry>
        </mxCell>
        <mxCell id="5MErfeMuYOcCwuII5DUp-10" value="&lt;div&gt;Encode image &lt;br&gt;&lt;/div&gt;&lt;div&gt;Using LSB&lt;br&gt;&lt;/div&gt;" style="rounded=0;whiteSpace=wrap;html=1;" vertex="1" parent="1">
          <mxGeometry x="354" y="496" width="120" height="60" as="geometry" />
        </mxCell>
        <mxCell id="5MErfeMuYOcCwuII5DUp-19" style="edgeStyle=orthogonalEdgeStyle;rounded=0;orthogonalLoop=1;jettySize=auto;html=1;entryX=0.5;entryY=0;entryDx=0;entryDy=0;" edge="1" parent="1" source="5MErfeMuYOcCwuII5DUp-12" target="5MErfeMuYOcCwuII5DUp-17">
          <mxGeometry relative="1" as="geometry" />
        </mxCell>
        <mxCell id="5MErfeMuYOcCwuII5DUp-12" value="&lt;div&gt;Write original&lt;/div&gt;&lt;div&gt;image&amp;nbsp;&lt;/div&gt;&lt;div&gt;data to file&lt;/div&gt;&lt;div&gt;for comparison&lt;br&gt;&lt;/div&gt;" style="shape=parallelogram;perimeter=parallelogramPerimeter;whiteSpace=wrap;html=1;fixedSize=1;" vertex="1" parent="1">
          <mxGeometry x="264" y="600" width="120" height="60" as="geometry" />
        </mxCell>
        <mxCell id="5MErfeMuYOcCwuII5DUp-20" style="edgeStyle=orthogonalEdgeStyle;rounded=0;orthogonalLoop=1;jettySize=auto;html=1;entryX=0.5;entryY=0;entryDx=0;entryDy=0;" edge="1" parent="1" source="5MErfeMuYOcCwuII5DUp-14" target="5MErfeMuYOcCwuII5DUp-17">
          <mxGeometry relative="1" as="geometry" />
        </mxCell>
        <mxCell id="5MErfeMuYOcCwuII5DUp-14" value="&lt;div&gt;Write encoded&lt;/div&gt;&lt;div&gt;image to file&lt;br&gt;&lt;/div&gt;" style="shape=parallelogram;perimeter=parallelogramPerimeter;whiteSpace=wrap;html=1;fixedSize=1;" vertex="1" parent="1">
          <mxGeometry x="440" y="600" width="120" height="60" as="geometry" />
        </mxCell>
        <mxCell id="5MErfeMuYOcCwuII5DUp-17" value="End" style="ellipse;whiteSpace=wrap;html=1;" vertex="1" parent="1">
          <mxGeometry x="354" y="720" width="120" height="80" as="geometry" />
        </mxCell>
        <mxCell id="5MErfeMuYOcCwuII5DUp-21" value="NO" style="text;html=1;align=center;verticalAlign=middle;whiteSpace=wrap;rounded=0;" vertex="1" parent="1">
          <mxGeometry x="320" y="272" width="60" height="30" as="geometry" />
        </mxCell>
        <mxCell id="5MErfeMuYOcCwuII5DUp-22" value="YES" style="text;html=1;align=center;verticalAlign=middle;whiteSpace=wrap;rounded=0;" vertex="1" parent="1">
          <mxGeometry x="400" y="328" width="60" height="30" as="geometry" />
        </mxCell>
      </root>
    </mxGraphModel>
  </diagram>
</mxfile>
